<?xml version="1.0" standalone="no"?>
<!DOCTYPE svg PUBLIC "-//W3C//DTD SVG 20010904//EN"
 "http://www.w3.org/TR/2001/REC-SVG-20010904/DTD/svg10.dtd">
<svg version="1.0" xmlns="http://www.w3.org/2000/svg"
 width="260.000000pt" height="260.000000pt" viewBox="0 0 260.000000 260.000000"
 preserveAspectRatio="xMidYMid meet">
<metadata>
Created by potrace 1.11, written by Peter Selinger 2001-2013
</metadata>
<g transform="translate(0.000000,260.000000) scale(0.100000,-0.100000)"
fill="#000000" stroke="none">
<path d="M1481 1543 c-63 -31 -89 -110 -56 -172 16 -32 84 -65 155 -76 65 -10
107 -32 120 -64 15 -37 4 -76 -31 -105 -72 -61 -215 -31 -235 49 -4 16 -13 25
-25 25 -17 0 -19 -8 -19 -70 0 -63 2 -70 20 -70 13 0 20 7 20 19 0 19 2 19 43
-4 31 -18 57 -25 100 -25 109 0 177 58 177 152 0 83 -38 111 -209 151 -67 15
-100 52 -85 93 33 95 200 92 228 -5 6 -20 15 -31 27 -31 17 0 19 8 19 70 0 63
-2 70 -20 70 -11 0 -20 -7 -20 -15 0 -13 -6 -12 -40 5 -48 24 -122 26 -169 3z"/>
<path d="M350 1530 c0 -18 6 -20 60 -20 33 0 60 -3 60 -7 0 -4 -35 -96 -77
-205 -69 -179 -79 -198 -100 -198 -16 0 -23 -6 -23 -20 0 -19 7 -20 90 -20 83
0 90 1 90 20 0 17 -7 20 -40 20 -22 0 -40 4 -40 9 0 4 10 31 21 60 l22 51 117
0 117 0 22 -56 c11 -31 21 -58 21 -60 0 -2 -18 -4 -40 -4 -33 0 -40 -3 -40
-20 0 -18 7 -20 85 -20 78 0 85 2 85 20 0 13 -7 20 -19 20 -20 0 -20 -1 -140
315 l-49 130 -111 3 c-106 3 -111 2 -111 -18z m228 -127 c22 -60 43 -116 47
-125 7 -16 -2 -18 -95 -18 -93 0 -102 2 -96 18 47 126 90 232 96 232 4 0 26
-48 48 -107z"/>
<path d="M1980 1490 l0 -60 -45 0 c-38 0 -45 -3 -45 -20 0 -17 7 -20 45 -20
l45 0 0 -135 c0 -134 0 -135 29 -167 25 -28 35 -32 92 -36 98 -6 207 44 172
79 -8 8 -17 7 -35 -5 -40 -26 -123 -39 -164 -26 -47 16 -54 38 -54 176 l0 114
110 0 c103 0 110 1 110 20 0 19 -7 20 -110 20 l-110 0 0 60 c0 53 -2 60 -20
60 -18 0 -20 -7 -20 -60z"/>
<path d="M996 1144 c-20 -20 -20 -58 0 -78 8 -9 31 -16 49 -16 39 0 65 22 65
55 0 33 -26 55 -65 55 -18 0 -41 -7 -49 -16z"/>
</g>
</svg>
